<svg xmlns="http://www.w3.org/2000/svg" viewBox="0 0 44 47"><defs><style>.cls-1{fill:none;stroke:#1c1f26;stroke-miterlimit:10;stroke-width:2px;}</style></defs><title>247-support</title><g id="Layer_2" data-name="Layer 2"><g id="icons"><path class="cls-1" d="M6,20H3a2.12,2.12,0,0,0-2,2.22v5.56A2.12,2.12,0,0,0,3,30H6V16.33C6,9,13.39,1,22.5,1S39,9,39,16.33V24"></path><path class="cls-1" d="M39,20h2a2.12,2.12,0,0,1,2,2.22v5.56A2.12,2.12,0,0,1,41,30H39"></path><path class="cls-1" d="M35,24v5c0,3.61-1.86,8.26-5,10.62"></path><path class="cls-1" d="M16,8c0,7,13.94,16,21,16"></path><path class="cls-1" d="M17,12c-3,1.25-7,6.81-7,11v6a14,14,0,0,0,8.08,12"></path><path class="cls-1" d="M27,44a2,2,0,0,1-2,2H22a2,2,0,0,1-2-2h0a2,2,0,0,1,2-2h3a2,2,0,0,1,2,2Z"></path><path class="cls-1" d="M26,44h1.18A11.82,11.82,0,0,0,39,32.18V27"></path></g></g></svg>