<svg xmlns="http://www.w3.org/2000/svg" viewBox="0 0 48 33"><defs><style>.cls-1{fill:none;stroke:#1c1f26;stroke-miterlimit:10;stroke-width:2px;}</style></defs><title>free-shipping</title><g id="Layer_2" data-name="Layer 2"><g id="icons"><path class="cls-1" d="M32,9h6.94a2,2,0,0,1,1.66.87L44,16h1a2,2,0,0,1,2,2.21V25a2,2,0,0,1-2,2H43"></path><polyline class="cls-1" points="0 1 32 1 32 27 14 27"></polyline><polyline class="cls-1" points="6 27 1 27 1 23"></polyline><path class="cls-1" d="M43,28a4,4,0,1,1-4-4A4,4,0,0,1,43,28Z"></path><path class="cls-1" d="M14,28a4,4,0,1,1-4-4A4,4,0,0,1,14,28Z"></path><line class="cls-1" x1="32" y1="27" x2="35" y2="27"></line><polyline class="cls-1" points="34 17 40 17 40 16 38 13"></polyline><polyline class="cls-1" points="6 8 1 8 1 19"></polyline><line class="cls-1" x1="1" y1="13" x2="5" y2="13"></line><line class="cls-1" x1="8" y1="19" x2="8" y2="9"></line><path class="cls-1" d="M14,14h5V12a2,2,0,0,0-2-2H16a2,2,0,0,0-2,2v4a2,2,0,0,0,2,2h1a2,2,0,0,0,2-2h0"></path><path class="cls-1" d="M22,14h5V12a2,2,0,0,0-2-2H24a2,2,0,0,0-2,2v4a2,2,0,0,0,2,2h1a2,2,0,0,0,2-2h0"></path><polyline class="cls-1" points="12 10 11 10 8 12"></polyline></g></g></svg>